LG_Sit_Stand_Walk07																		
version=1																		
nRows=71																		
nColumns=19																		
inDegrees=yes																		
endheader																		
time	ground_force2_vx	ground_force2_vy	ground_force2_vz	ground_force2_px	ground_force2_py	ground_force2_pz	ground_torque2_x	ground_torque2_y	ground_torque2_z	ground_force1_vx	ground_force1_vy	ground_force1_vz	ground_force1_px	ground_force1_py	ground_force1_pz	ground_torque1_x	ground_torque1_y	ground_torque1_z
3.185	-31.579559	387.58136	-28.819643	0.190698	0	-0.388859	1.00E-05	0.744981	3.00E-06	0	0	0	-0.13	0	0.305	0	0	0
3.186	-31.889519	386.906372	-28.898014	0.190673	0	-0.388626	1.00E-05	0.744981	4.00E-06	0	0	0	-0.13	0	0.305	0	0	0
3.187	-31.810947	386.906372	-28.898212	0.190985	0	-0.388626	7.00E-06	0.800112	6.00E-06	0	0	0	-0.13	0	0.305	0	0	0
3.188	-31.810947	388.965729	-28.976423	0.190673	0	-0.388289	7.00E-06	0.800112	6.00E-06	0	0	0	-0.13	0	0.305	0	0	0
3.189	-31.340231	389.313263	-29.289907	0.190928	0	-0.387775	7.00E-06	0.799015	6.00E-06	0	0	0	-0.13	0	0.305	0	0	0
3.19	-31.340231	389.313263	-29.289907	0.190523	0	-0.387578	7.00E-06	0.69932	5.00E-06	0	0	0	-0.13	0	0.305	0	0	0
3.191	-31.340231	388.81839	-29.133368	0.190893	0	-0.387524	5.00E-06	0.62833	5.00E-06	0	0	0	-0.13	0	0.305	0	0	0
3.192	-31.810947	388.81839	-29.133368	0.190893	0	-0.387079	2.00E-06	0.69932	3.00E-06	0	0	0	-0.13	0	0.305	0	0	0
3.193	-32.042336	391.397339	-29.525461	0.190893	0	-0.386812	1.00E-06	0.72112	5.00E-06	0	0	0	-0.13	0	0.305	0	0	0
3.194	-32.042336	391.397339	-29.525461	0.190855	0	-0.386166	2.00E-06	0.72112	4.00E-06	0	0	0	-0.13	0	0.305	0	0	0
3.195	-31.103073	391.397339	-29.525461	0.190855	0	-0.386462	5.00E-06	0.699029	4.00E-06	0	0	0	-0.13	0	0.305	0	0	0
3.196	-31.103073	391.233826	-29.838745	0.191387	0	-0.385493	5.00E-06	0.550169	4.00E-06	0	0	0	-0.13	0	0.305	0	0	0
3.197	-31.335182	391.752991	-29.917234	0.191392	0	-0.385493	3.00E-06	0.6541	2.00E-06	0	0	0	-0.13	0	0.305	0	0	0
3.198	-31.571619	391.927338	-29.917234	0.191392	0	-0.385493	3.00E-06	0.6541	4.00E-06	0	0	0	-0.13	0	0.305	0	0	0
3.199	-31.648029	392.115997	-29.917274	0.191408	0	-0.384423	8.00E-06	0.6541	5.00E-06	0	0	0	-0.13	0	0.305	0	0	0
3.2	-31.648029	393.489166	-30.309128	0.191416	0	-0.384124	8.00E-06	0.592449	5.00E-06	0	0	0	-0.13	0	0.305	0	0	0
3.201	-31.648029	393.489166	-30.857645	0.191416	0	-0.384124	1.00E-05	0.586051	5.00E-06	0	0	0	-0.13	0	0.305	0	0	0
3.202	-32.42654	392.978088	-30.857645	0.191751	0	-0.384156	1.00E-05	0.586051	5.00E-06	0	0	0	-0.13	0	0.305	0	0	0
3.203	-32.42654	392.978088	-30.857645	0.191683	0	-0.384156	1.00E-05	0.630724	5.00E-06	0	0	0	-0.13	0	0.305	0	0	0
3.204	-32.581516	394.706909	-31.327909	0.191751	0	-0.384007	1.00E-06	0.630724	6.00E-06	0	0	0	-0.13	0	0.305	0	0	0
3.205	-32.425816	396.952179	-32.111618	0.191683	0	-0.383282	1.00E-06	0.624774	3.00E-06	0	0	0	-0.13	0	0.305	0	0	0
3.206	-32.425816	396.965332	-32.503151	0.192094	0	-0.383282	7.00E-06	0.562096	5.00E-06	0	0	0	-0.13	0	0.305	0	0	0
3.207	-32.425816	397.287415	-32.973492	0.19192	0	-0.383043	7.00E-06	0.562096	3.00E-06	0	0	0	-0.13	0	0.305	0	0	0
3.208	-32.809299	396.965332	-32.973492	0.19192	0	-0.382548	7.00E-06	0.451768	0	0	0	0	-0.13	0	0.305	0	0	0
3.209	-32.811462	397.303589	-33.365189	0.19192	0	-0.381922	6.00E-06	0.537856	0.00E+00	0	0	0	-0.13	0	0.305	0	0	0
3.21	-32.811462	397.831635	-34.305676	0.191901	0	-0.381922	4.00E-06	0.537856	0	0	0	0	-0.13	0	0.305	0	0	0
3.211	-32.964279	398.00177	-34.61916	0.192037	0	-0.381949	3.00E-06	0.537856	3.00E-06	0	0	0	-0.13	0	0.305	0	0	0
3.212	-33.121422	399.553131	-35.011013	0.192054	0	-0.381949	3.00E-06	0.479687	7.00E-06	0	0	0	-0.13	0	0.305	0	0	0
3.213	-33.121422	399.553131	-35.402748	0.1921	0	-0.38184	7.00E-06	0.430703	7.00E-06	0	0	0	-0.13	0	0.305	0	0	0
3.214	-33.431385	398.5495	-35.872887	0.1921	0	-0.381093	7.00E-06	0.441956	6.00E-06	0	0	0	-0.13	0	0.305	0	0	0
3.215	-33.431385	398.5495	-36.499817	0.192091	0	-0.381246	7.00E-06	0.429596	3.00E-06	0	0	0	-0.13	0	0.305	0	0	0
3.216	-33.117092	400.090454	-37.518475	0.191717	0	-0.381211	7.00E-06	0.401951	3.00E-06	0	0	0	-0.13	0	0.305	0	0	0
3.217	-33.038521	401.463226	-37.910408	0.192091	0	-0.381211	7.00E-06	0.35947	4.00E-06	0	0	0	-0.13	0	0.305	0	0	0
3.218	-33.038521	401.463226	-38.145279	0.192294	0	-0.380806	1.50E-05	0.35947	5.00E-06	0	0	0	-0.13	0	0.305	0	0	0
3.219	-33.429218	402.693726	-39.477383	0.192294	0	-0.380392	2.00E-06	0.341408	4.00E-06	0	0	0	-0.13	0	0.305	0	0	0
3.22	-33.659889	401.303528	-39.869354	0.191918	0	-0.379891	8.00E-06	0.440426	5.00E-06	0	0	0	-0.13	0	0.305	0	0	0
3.221	-33.661331	402.015625	-40.104309	0.191918	0	-0.379247	8.00E-06	0.43172	4.00E-06	0	0	0	-0.13	0	0.305	0	0	0
3.222	-33.898491	400.971863	-41.358158	0.191639	0	-0.379247	1.00E-05	0.43172	4.00E-06	0	0	0	-0.13	0	0.305	0	0	0
3.223	-33.661331	402.015625	-42.298447	0.191639	0	-0.379007	1.50E-05	0.297106	4.00E-06	0	0	0	-0.13	0	0.305	0	0	0
3.224	-33.347038	402.19696	-42.689861	0.191639	0	-0.378365	1.50E-05	0.297106	2.00E-06	0	0	0	-0.13	0	0.305	0	0	0
3.225	-33.347038	402.19696	-43.081993	0.191788	0	-0.378286	8.00E-06	0.366793	4.00E-06	0	0	0	-0.13	0	0.305	0	0	0
3.226	-33.347038	402.015656	-43.552097	0.191788	0	-0.378286	8.00E-06	0.366793	2.00E-06	0	0	0	-0.13	0	0.305	0	0	0
3.227	-33.03347	400.47934	-44.257114	0.191788	0	-0.378286	8.00E-06	0.231497	4.00E-06	0	0	0	-0.13	0	0.305	0	0	0
3.228	-33.03347	402.015656	-44.257195	0.191616	0	-0.378027	8.00E-06	0.231497	4.00E-06	0	0	0	-0.13	0	0.305	0	0	0
3.229	-33.03347	401.178314	-44.257278	0.1922	0	-0.37758	8.00E-06	0.274056	5.00E-06	0	0	0	-0.13	0	0.305	0	0	0
3.23	-32.723511	402.051575	-44.335766	0.19253	0	-0.376689	7.00E-06	0.274056	5.00E-06	0	0	0	-0.13	0	0.305	0	0	0
3.231	-32.723511	402.029602	-45.119312	0.19253	0	-0.376689	1.00E-05	0.379476	3.00E-06	0	0	0	-0.13	0	0.305	0	0	0
3.232	-32.639885	402.029602	-45.354385	0.191958	0	-0.376372	8.00E-06	0.25587	3.00E-06	0	0	0	-0.13	0	0.305	0	0	0
3.233	-32.954899	401.180603	-45.354385	0.191958	0	-0.376648	8.00E-06	0.25587	5.00E-06	0	0	0	-0.13	0	0.305	0	0	0
3.234	-32.80064	400.674164	-45.354263	0.191958	0	-0.376518	6.00E-06	0.25587	5.00E-06	0	0	0	-0.13	0	0.305	0	0	0
3.235	-32.80064	401.180603	-45.354225	0.192117	0	-0.376518	6.00E-06	0.277385	4.00E-06	0	0	0	-0.13	0	0.305	0	0	0
3.236	-32.562756	401.188354	-45.354263	0.191843	0	-0.376028	4.00E-06	0.329938	0	0	0	0	-0.13	0	0.305	0	0	0
3.237	-32.483463	401.188354	-45.902901	0.191699	0	-0.376028	1.00E-06	0.277385	0	0	0	0	-0.13	0	0.305	0	0	0
3.238	-32.097816	400.495544	-45.902901	0.191699	0	-0.376149	1.00E-06	0.228759	3.00E-06	0	0	0	-0.13	0	0.305	0	0	0
3.239	-32.483463	400.495544	-45.824448	0.191781	0	-0.376149	5.00E-06	0.228759	3.00E-06	0	0	0	-0.13	0	0.305	0	0	0
3.24	-32.874882	401.187195	-45.746159	0.191781	0	-0.376093	7.00E-06	0.294694	3.00E-06	0	0	0	-0.13	0	0.305	0	0	0
3.241	-32.874882	401.544006	-45.746159	0.191581	0	-0.375491	8.00E-06	0.294694	3.00E-06	0	0	0	-0.13	0	0.305	0	0	0
3.242	-32.48563	401.544006	-45.746159	0.191581	0	-0.375295	8.00E-06	0.247645	2.00E-06	0	0	0	-0.13	0	0.305	0	0	0
3.243	-32.48563	403.775757	-45.432716	0.191954	0	-0.375207	8.00E-06	0.223382	3.00E-06	0	0	0	-0.13	0	0.305	0	0	0
3.244	-32.48563	403.775757	-45.432716	0.191956	0	-0.37521	1.00E-05	0.178488	2.00E-06	0	0	0	-0.13	0	0.305	0	0	0
3.245	-32.483463	403.775757	-45.746323	0.192101	0	-0.375207	1.00E-05	0.178488	1.00E-06	0	0	0	-0.13	0	0.305	0	0	0
3.246	-32.483463	403.425171	-45.746323	0.192101	0	-0.374689	1.00E-05	0.178488	1.00E-06	0	0	0	-0.13	0	0.305	0	0	0
3.247	-32.483463	404.985016	-45.511288	0.19147	0	-0.374611	9.00E-06	0.207276	1.00E-06	0	0	0	-0.13	0	0.305	0	0	0
3.248	-32.172779	404.976929	-45.432999	0.19147	0	-0.374689	4.00E-06	0.112733	3.00E-06	0	0	0	-0.13	0	0.305	0	0	0
3.249	-32.172779	404.976929	-45.432919	0.191935	0	-0.375595	5.00E-06	0.15132	4.00E-06	0	0	0	-0.13	0	0.305	0	0	0
3.25	-32.482742	404.13147	-45.197723	0.19238	0	-0.375595	5.00E-06	0.15132	5.00E-06	0	0	0	-0.13	0	0.305	0	0	0
3.251	-32.487793	404.13147	-44.962936	0.191961	0	-0.374494	5.00E-06	0.226429	6.00E-06	0	0	0	-0.13	0	0.305	0	0	0
3.252	-32.482742	404.13147	-44.962772	0.191961	0	-0.374161	9.00E-06	0.226429	6.00E-06	0	0	0	-0.13	0	0.305	0	0	0
3.253	-32.482742	403.774261	-44.962692	0.191818	0	-0.374161	9.00E-06	0.190965	0	0	0	0	-0.13	0	0.305	0	0	0
3.254	-32.247025	403.436768	-44.571159	0.19176	0	-0.374161	9.00E-06	0.152913	0	0	0	0	-0.13	0	0.305	0	0	0
3.255	-32.247025	402.908325	-44.101017	0.191778	0	-0.374552	8.00E-06	0.152913	0	0	0	0	-0.13	0	0.305	0	0	0
